<svg xmlns="http://www.w3.org/2000/svg" xmlns:xlink="http://www.w3.org/1999/xlink" width="66.762" height="66.762" viewBox="0 0 66.762 66.762">
  <defs>
    <radialGradient id="radial-gradient" cx="0.5" cy="0.5" r="0.707" gradientTransform="translate(0.5 1.207) rotate(-135)" gradientUnits="objectBoundingBox">
      <stop offset="0" stop-color="#292a49"/>
      <stop offset="0.443" stop-color="#525491"/>
      <stop offset="1" stop-color="#292a49"/>
    </radialGradient>
  </defs>
  <g id="Logo_Icon_dark" data-name="Logo Icon dark" transform="translate(-595 -66.738)">
    <g id="Group_24" data-name="Group 24" transform="translate(98 42)">
      <path id="Path_80" data-name="Path 80" d="M0,0H66.762V66.762H0Z" transform="translate(497 24.738)" fill="#fff"/>
      <path id="Path_5" data-name="Path 5" d="M0,0H61.8L0,61.8Z" transform="translate(499.221 27.221)" fill="url(#radial-gradient)"/>
    </g>
    <path id="Path_81" data-name="Path 81" d="M.938-10V0H2.926V-2.492l.77-.742L5.684,0H8.092L5.054-4.578l2.73-2.66H5.432l-2.506,2.6V-10Zm7.77,4.984a2.309,2.309,0,0,1,.35-1.162,2.383,2.383,0,0,1,.784-.742,3.416,3.416,0,0,1,1.071-.4,6.089,6.089,0,0,1,1.2-.119,8.112,8.112,0,0,1,1.106.077,3.383,3.383,0,0,1,1.022.3,2.014,2.014,0,0,1,.756.623,1.741,1.741,0,0,1,.294,1.057V-1.61a7.563,7.563,0,0,0,.056.938,1.7,1.7,0,0,0,.2.672H13.524a2.853,2.853,0,0,1-.091-.343A2.987,2.987,0,0,1,13.384-.7a2.591,2.591,0,0,1-1.12.686,4.5,4.5,0,0,1-1.316.2A3.555,3.555,0,0,1,9.982.056,2.212,2.212,0,0,1,9.2-.336a1.825,1.825,0,0,1-.525-.672,2.272,2.272,0,0,1-.189-.966A2.11,2.11,0,0,1,8.7-2.989a1.814,1.814,0,0,1,.56-.637,2.509,2.509,0,0,1,.784-.357,8.369,8.369,0,0,1,.889-.189q.448-.07.882-.112a5.3,5.3,0,0,0,.77-.126,1.342,1.342,0,0,0,.532-.245.538.538,0,0,0,.182-.469,1.055,1.055,0,0,0-.105-.511.772.772,0,0,0-.28-.294,1.1,1.1,0,0,0-.406-.14,3.322,3.322,0,0,0-.5-.035,1.509,1.509,0,0,0-.924.252,1.125,1.125,0,0,0-.392.84ZM13.3-3.542a.892.892,0,0,1-.315.175,3.217,3.217,0,0,1-.406.105q-.217.042-.455.07t-.476.07a3.59,3.59,0,0,0-.441.112,1.3,1.3,0,0,0-.378.189.9.9,0,0,0-.259.3.968.968,0,0,0-.1.462.935.935,0,0,0,.1.448.751.751,0,0,0,.266.287,1.123,1.123,0,0,0,.392.147,2.5,2.5,0,0,0,.462.042,1.757,1.757,0,0,0,.91-.2,1.311,1.311,0,0,0,.476-.469,1.5,1.5,0,0,0,.189-.553A3.8,3.8,0,0,0,13.3-2.8Zm8.834-.07a3.807,3.807,0,0,1-.1.868A2.3,2.3,0,0,1,21.728-2a1.613,1.613,0,0,1-.525.511,1.457,1.457,0,0,1-.763.189,1.466,1.466,0,0,1-.756-.189A1.59,1.59,0,0,1,19.152-2a2.3,2.3,0,0,1-.308-.742,3.808,3.808,0,0,1-.1-.868,3.871,3.871,0,0,1,.1-.882,2.3,2.3,0,0,1,.308-.742,1.59,1.59,0,0,1,.532-.511,1.466,1.466,0,0,1,.756-.189,1.457,1.457,0,0,1,.763.189,1.613,1.613,0,0,1,.525.511,2.3,2.3,0,0,1,.308.742A3.87,3.87,0,0,1,22.134-3.612ZM16.828-10V0h1.89V-.924h.028A1.812,1.812,0,0,0,19.7-.07a3.819,3.819,0,0,0,1.428.252A2.756,2.756,0,0,0,22.2-.042a2.76,2.76,0,0,0,.959-.686,3.508,3.508,0,0,0,.693-1.183,4.959,4.959,0,0,0,.266-1.715,4.959,4.959,0,0,0-.266-1.715,3.508,3.508,0,0,0-.693-1.183A2.76,2.76,0,0,0,22.2-7.21a2.756,2.756,0,0,0-1.078-.224,3.341,3.341,0,0,0-1.295.259,2.121,2.121,0,0,0-.987.819h-.028V-10ZM30.31-4.69h1.946A2.723,2.723,0,0,0,31.92-5.9a2.735,2.735,0,0,0-.763-.854,3.307,3.307,0,0,0-1.064-.511,4.538,4.538,0,0,0-1.239-.168,3.948,3.948,0,0,0-1.568.294,3.3,3.3,0,0,0-1.162.819A3.512,3.512,0,0,0,25.4-5.075a4.822,4.822,0,0,0-.245,1.561,4.054,4.054,0,0,0,.266,1.491,3.475,3.475,0,0,0,.742,1.169,3.306,3.306,0,0,0,1.155.763,3.961,3.961,0,0,0,1.491.273,3.615,3.615,0,0,0,2.366-.756,3.28,3.28,0,0,0,1.12-2.2H30.38A1.887,1.887,0,0,1,29.9-1.7a1.456,1.456,0,0,1-1.1.4,1.4,1.4,0,0,1-.784-.21,1.568,1.568,0,0,1-.511-.539,2.469,2.469,0,0,1-.273-.735,3.932,3.932,0,0,1-.084-.8A4.1,4.1,0,0,1,27.23-4.4a2.419,2.419,0,0,1,.287-.756,1.725,1.725,0,0,1,.525-.56,1.4,1.4,0,0,1,.8-.217A1.333,1.333,0,0,1,30.31-4.69ZM33.418-10V0h1.988V-3.794a2.685,2.685,0,0,1,.364-1.589,1.377,1.377,0,0,1,1.176-.483,1.084,1.084,0,0,1,.994.441,2.537,2.537,0,0,1,.28,1.337V0h1.988V-4.452a5.834,5.834,0,0,0-.119-1.225,2.33,2.33,0,0,0-.413-.938,1.941,1.941,0,0,0-.805-.6,3.376,3.376,0,0,0-1.309-.217,2.607,2.607,0,0,0-1.148.287,2.3,2.3,0,0,0-.966.917h-.042V-10ZM43.764-8.358V-10H41.776v1.638Zm-1.988,1.12V0h1.988V-7.238Z" transform="translate(614.5 130.5)" fill="#270b3b"/>
  </g>
</svg>
