<svg xmlns="http://www.w3.org/2000/svg" xmlns:xlink="http://www.w3.org/1999/xlink" width="236.597" height="49.199" viewBox="0 0 236.597 49.199">
  <defs>
    <radialGradient id="radial-gradient" cx="0.5" cy="0.5" r="0.707" gradientTransform="translate(0.5 1.207) rotate(-135)" gradientUnits="objectBoundingBox">
      <stop offset="0" stop-color="#525491"/>
      <stop offset="0.443" stop-color="#525491"/>
      <stop offset="1" stop-color="#292a49"/>
    </radialGradient>
  </defs>
  <g id="Logo_Text_light" data-name="Logo Text light" transform="translate(-612.463 -73.081)">
    <g id="Group_28" data-name="Group 28" transform="translate(17.725 6.581)">
      <path id="Path_6" data-name="Path 6" d="M0,0H48.91V48.711H0Z" transform="translate(594.738 66.627)" fill="#270b3b"/>
      <path id="Path_5" data-name="Path 5" d="M0,0H49.037L0,48.838Z" transform="translate(594.738 66.5)" fill="url(#radial-gradient)"/>
    </g>
    <path id="Path_76" data-name="Path 76" d="M4.02-42.84V0h8.52V-10.68l3.3-3.18L24.36,0H34.68L21.66-19.62l11.7-11.4H23.28L12.54-19.86V-42.84Zm33.3,21.36a9.9,9.9,0,0,1,1.5-4.98,10.214,10.214,0,0,1,3.36-3.18,14.642,14.642,0,0,1,4.59-1.71,26.1,26.1,0,0,1,5.13-.51,34.767,34.767,0,0,1,4.74.33,14.5,14.5,0,0,1,4.38,1.29,8.63,8.63,0,0,1,3.24,2.67,7.461,7.461,0,0,1,1.26,4.53V-6.9a32.414,32.414,0,0,0,.24,4.02A7.267,7.267,0,0,0,66.6,0H57.96a12.227,12.227,0,0,1-.39-1.47A12.8,12.8,0,0,1,57.36-3a11.1,11.1,0,0,1-4.8,2.94,19.266,19.266,0,0,1-5.64.84A15.238,15.238,0,0,1,42.78.24a9.481,9.481,0,0,1-3.36-1.68,7.82,7.82,0,0,1-2.25-2.88,9.737,9.737,0,0,1-.81-4.14,9.045,9.045,0,0,1,.93-4.35,7.776,7.776,0,0,1,2.4-2.73,10.753,10.753,0,0,1,3.36-1.53,35.869,35.869,0,0,1,3.81-.81q1.92-.3,3.78-.48a22.732,22.732,0,0,0,3.3-.54,5.753,5.753,0,0,0,2.28-1.05A2.3,2.3,0,0,0,57-21.96a4.521,4.521,0,0,0-.45-2.19,3.309,3.309,0,0,0-1.2-1.26,4.721,4.721,0,0,0-1.74-.6,14.238,14.238,0,0,0-2.13-.15,6.467,6.467,0,0,0-3.96,1.08,4.821,4.821,0,0,0-1.68,3.6ZM57-15.18a3.822,3.822,0,0,1-1.35.75,13.788,13.788,0,0,1-1.74.45q-.93.18-1.95.3t-2.04.3a15.386,15.386,0,0,0-1.89.48,5.588,5.588,0,0,0-1.62.81A3.85,3.85,0,0,0,45.3-10.8a4.15,4.15,0,0,0-.42,1.98A4.008,4.008,0,0,0,45.3-6.9a3.22,3.22,0,0,0,1.14,1.23,4.811,4.811,0,0,0,1.68.63,10.723,10.723,0,0,0,1.98.18A7.532,7.532,0,0,0,54-5.7a5.618,5.618,0,0,0,2.04-2.01,6.428,6.428,0,0,0,.81-2.37A16.28,16.28,0,0,0,57-12Zm37.86-.3a16.318,16.318,0,0,1-.42,3.72,9.875,9.875,0,0,1-1.32,3.18,6.913,6.913,0,0,1-2.25,2.19,6.245,6.245,0,0,1-3.27.81,6.284,6.284,0,0,1-3.24-.81,6.813,6.813,0,0,1-2.28-2.19,9.875,9.875,0,0,1-1.32-3.18,16.318,16.318,0,0,1-.42-3.72,16.588,16.588,0,0,1,.42-3.78,9.875,9.875,0,0,1,1.32-3.18,6.813,6.813,0,0,1,2.28-2.19,6.284,6.284,0,0,1,3.24-.81,6.245,6.245,0,0,1,3.27.81,6.913,6.913,0,0,1,2.25,2.19,9.875,9.875,0,0,1,1.32,3.18A16.588,16.588,0,0,1,94.86-15.48ZM72.12-42.84V0h8.1V-3.96h.12A7.768,7.768,0,0,0,84.42-.3,16.366,16.366,0,0,0,90.54.78a11.809,11.809,0,0,0,4.62-.96,11.829,11.829,0,0,0,4.11-2.94,15.033,15.033,0,0,0,2.97-5.07,21.255,21.255,0,0,0,1.14-7.35,21.255,21.255,0,0,0-1.14-7.35,15.033,15.033,0,0,0-2.97-5.07,11.829,11.829,0,0,0-4.11-2.94,11.809,11.809,0,0,0-4.62-.96,14.32,14.32,0,0,0-5.55,1.11,9.091,9.091,0,0,0-4.23,3.51h-.12v-15.6ZM129.9-20.1h8.34a11.671,11.671,0,0,0-1.44-5.19,11.722,11.722,0,0,0-3.27-3.66,14.173,14.173,0,0,0-4.56-2.19,19.448,19.448,0,0,0-5.31-.72,16.919,16.919,0,0,0-6.72,1.26,14.143,14.143,0,0,0-4.98,3.51,15.051,15.051,0,0,0-3.09,5.34,20.666,20.666,0,0,0-1.05,6.69,17.373,17.373,0,0,0,1.14,6.39,14.892,14.892,0,0,0,3.18,5.01,14.169,14.169,0,0,0,4.95,3.27A16.978,16.978,0,0,0,123.48.78a15.491,15.491,0,0,0,10.14-3.24q3.96-3.24,4.8-9.42H130.2a8.089,8.089,0,0,1-2.07,4.59,6.242,6.242,0,0,1-4.71,1.71,6.019,6.019,0,0,1-3.36-.9,6.722,6.722,0,0,1-2.19-2.31,10.58,10.58,0,0,1-1.17-3.15,16.851,16.851,0,0,1-.36-3.42,17.575,17.575,0,0,1,.36-3.51,10.367,10.367,0,0,1,1.23-3.24,7.391,7.391,0,0,1,2.25-2.4,5.983,5.983,0,0,1,3.42-.93Q129.06-25.44,129.9-20.1Zm13.32-22.74V0h8.52V-16.26q0-4.74,1.56-6.81t5.04-2.07q3.06,0,4.26,1.89a10.871,10.871,0,0,1,1.2,5.73V0h8.52V-19.08a25,25,0,0,0-.51-5.25,9.984,9.984,0,0,0-1.77-4.02,8.317,8.317,0,0,0-3.45-2.58,14.47,14.47,0,0,0-5.61-.93,11.174,11.174,0,0,0-4.92,1.23,9.866,9.866,0,0,0-4.14,3.93h-.18V-42.84Zm44.34,7.02v-7.02h-8.52v7.02Zm-8.52,4.8V0h8.52V-31.02Z" transform="translate(661.5 121.5)" fill="#270b3b"/>
  </g>
</svg>
