<svg xmlns="http://www.w3.org/2000/svg" width="487.658" height="540.259" viewBox="0 0 487.658 540.259">
  <g id="_499_innovation_flatline" data-name="#499_innovation_flatline" transform="translate(-89.483 -27.51)">
    <path id="Path_8" data-name="Path 8" d="M259,129.292c.6-2.36,1.169-4.741,1.786-7.1.309-1.235.684-2.448,1.081-3.639a3.4,3.4,0,0,1,3.44-2.558c1.9,0,3.771.287,5.645.419a17.424,17.424,0,0,0,3.021.132,3.308,3.308,0,0,0,2.007-.838c1.963-2.205,3.837-4.411,5.667-6.836a3.219,3.219,0,0,0,.375-3c-.661-2.205-1.411-4.41-2.051-6.616a8.492,8.492,0,0,1-.485-2.646,2.58,2.58,0,0,1,.728-1.786,41.215,41.215,0,0,1,10.7-6.02,2.757,2.757,0,0,1,3.264.86c1.588,1.83,3.242,3.617,4.785,5.491a4.543,4.543,0,0,0,4.565,1.83c2.448-.4,4.918-.64,7.365-.97a2.757,2.757,0,0,0,2.205-1.544c.772-1.367,1.478-2.779,2.205-4.168s1.279-2.382,1.963-3.55A2.845,2.845,0,0,1,320.57,85.3c3.506.882,7.035,1.786,10.519,2.8a3,3,0,0,1,2.205,3.131c0,1.919-.287,3.815-.419,5.734,0,.882-.132,1.786-.132,2.69a3.683,3.683,0,0,0,1.411,3.021c1.941,1.544,3.9,3.065,5.8,4.675a4.014,4.014,0,0,0,4.1.794c2.382-.75,4.763-1.544,7.145-2.205a3.242,3.242,0,0,1,4.256,1.588q2.481,4.168,4.785,8.446a3.506,3.506,0,0,1-.838,4.984c-1.169,1.1-2.448,2.073-3.661,3.131q-1.279,1.169-2.514,2.382a3.2,3.2,0,0,0-.9,2.624c.265,2.558.529,5.116.86,7.652a4.1,4.1,0,0,0,2.338,3.22c1.477.706,2.955,1.389,4.41,2.205a25.893,25.893,0,0,1,2.668,1.477,3.043,3.043,0,0,1,1.456,3.55c-.86,3.176-1.764,6.351-2.668,9.5a7.152,7.152,0,0,1-.64,1.389,2.757,2.757,0,0,1-2.734,1.588l-6.748-.551h-.507a4.763,4.763,0,0,0-4.918,2.205c-1.125,1.588-2.426,3.043-3.639,4.565a4.807,4.807,0,0,0-.816,4.918c.728,2.205,1.433,4.212,2.073,6.329a3.22,3.22,0,0,1-1.72,4.411q-4.3,2.547-8.821,4.9a3.087,3.087,0,0,1-4.146-.706c-1.3-1.389-2.536-2.867-3.771-4.411-2.668-3.131-3.286-3.374-7.365-2.823l-4.763.684a4.411,4.411,0,0,0-3.573,2.514c-.838,1.7-1.632,3.418-2.514,5.094a15.184,15.184,0,0,1-1.654,2.426,2.205,2.205,0,0,1-2.47.882l-9.99-2.779a7.039,7.039,0,0,1-1.3-.617,2.713,2.713,0,0,1-1.61-2.734c.176-2.205.353-4.41.507-6.616v-2.029a3.462,3.462,0,0,0-1.367-2.867c-1.9-1.455-3.771-2.933-5.645-4.41a3.859,3.859,0,0,0-3.9-.617c-2.1.728-4.212,1.367-6.329,2.051h-.243c-2.779.75-3.727.463-5.182-2.029s-3.109-5.6-4.543-8.468a2.911,2.911,0,0,1,.816-4.146c1.588-1.455,3.242-2.867,4.962-4.19a5.182,5.182,0,0,0,2.205-5.315c-.353-2.205-.6-4.587-.926-6.88a2.867,2.867,0,0,0-1.544-2.205c-2.029-1.058-4.058-2.095-6.064-3.176a6.285,6.285,0,0,1-3.286-2.889Zm74.25,6.616a21.9,21.9,0,0,0-23.861-19.979,22.229,22.229,0,0,0-19.6,23.728A21.876,21.876,0,0,0,313.293,159.5a21.633,21.633,0,0,0,19.891-23.662Z" transform="translate(204.307 69.519)" fill="#fff"/>
    <path id="Path_9" data-name="Path 9" d="M303.716,192.035a3.505,3.505,0,0,1-.948-.132l-2.338-.639-7.674-2.205a9.21,9.21,0,0,1-1.323-.6,3.925,3.925,0,0,1-2.382-3.9l.243-2.933.265-3.7a18.591,18.591,0,0,0,0-1.919,2.381,2.381,0,0,0-.926-2.029c-1.83-1.389-3.617-2.823-5.425-4.234l-.243-.2a2.779,2.779,0,0,0-2.867-.441c-1.456.507-2.933.97-4.41,1.455l-1.963.617h-.287c-3.308.9-4.741.331-6.417-2.536s-3.4-6.153-4.587-8.512a3.969,3.969,0,0,1,1.058-5.469c1.875-1.7,3.484-3.043,5.028-4.256a4.124,4.124,0,0,0,1.742-4.278c-.22-1.411-.419-2.867-.6-4.41l-.331-2.58a1.808,1.808,0,0,0-.97-1.455l-2.426-1.257c-1.213-.64-2.448-1.257-3.661-1.919a7.232,7.232,0,0,1-3.771-3.418.925.925,0,0,1,0-.353v-.838a.95.95,0,0,1,0-.353l.441-1.83,1.323-5.293c.331-1.235.706-2.47,1.1-3.7a4.41,4.41,0,0,1,4.41-3.308,36.122,36.122,0,0,1,3.793.265l1.9.154h.794a10.85,10.85,0,0,0,2.051,0,2.558,2.558,0,0,0,1.3-.463c2.073-2.36,4.014-4.763,5.6-6.792a2.073,2.073,0,0,0,.2-2.007c-.287-.97-.6-1.941-.926-2.933s-.772-2.448-1.125-3.683a9.455,9.455,0,0,1-.529-2.955,3.506,3.506,0,0,1,1.169-2.646,40.489,40.489,0,0,1,11.026-6.2,3.837,3.837,0,0,1,4.41,1.191l1.676,1.9c1.059,1.191,2.205,2.36,3.131,3.595a3.44,3.44,0,0,0,3.528,1.455c1.61-.265,3.2-.463,4.807-.662l2.6-.331a1.676,1.676,0,0,0,1.3-.97l1.323-2.514,1.235-2.205c.529-.992,1.059-2.007,1.654-2.955a3.925,3.925,0,0,1,4.41-1.985c4.256,1.081,7.5,1.941,10.541,2.823A4.1,4.1,0,0,1,334.59,91.7a36.978,36.978,0,0,1-.265,3.859,18.792,18.792,0,0,1-.176,1.919c-.066.64-.11,1.742-.11,2.624a2.58,2.58,0,0,0,.992,2.205l1.367,1.081c1.5,1.191,3,2.382,4.41,3.617a2.955,2.955,0,0,0,3.065.573l3.484-1.1,3.661-1.169a4.411,4.411,0,0,1,5.535,2.205c1.676,2.823,3.286,5.667,4.807,8.468a4.565,4.565,0,0,1-1.059,6.307c-.706.662-1.433,1.279-2.205,1.9l-1.5,1.279c-.838.728-1.654,1.522-2.448,2.205a2.073,2.073,0,0,0-.618,1.742l.155,1.411c.22,2.073.463,4.146.728,6.2a2.955,2.955,0,0,0,1.72,2.382l1.9.9,2.536,1.213c.86.441,1.83.948,2.757,1.544a4.08,4.08,0,0,1,1.919,4.763q-1.279,4.763-2.646,9.527a7.651,7.651,0,0,1-.684,1.478,3.925,3.925,0,0,1-3.859,2.205l-6.748-.551a3.134,3.134,0,0,1-.573,0,3.727,3.727,0,0,0-3.859,1.764c-.816,1.147-1.7,2.205-2.58,3.264l-1.1,1.345a3.727,3.727,0,0,0-.64,3.859c.816,2.36,1.5,4.41,2.1,6.4a4.278,4.278,0,0,1-2.205,5.734c-2.668,1.566-5.535,3.176-8.821,4.918a4.1,4.1,0,0,1-5.447-.926c-1.081-1.147-2.095-2.338-3.109-3.55l-.706-.816c-2.426-2.867-2.69-2.955-6.373-2.448l-4.785.684a3.33,3.33,0,0,0-2.734,1.919l-.794,1.654q-.816,1.742-1.72,3.44a14.792,14.792,0,0,1-1.764,2.624,3.374,3.374,0,0,1-2.47,1.7Zm-22.427-25.272a4.94,4.94,0,0,1,3.065,1.1l.243.2c1.786,1.411,3.595,2.845,5.4,4.234a4.543,4.543,0,0,1,1.786,3.7v2.205c0,1.235-.176,2.492-.287,3.727l-.221,2.933a1.654,1.654,0,0,0,1.036,1.676h.2a5.224,5.224,0,0,0,.882.419l7.652,2.205,2.315.64a1.169,1.169,0,0,0,1.323-.507,14.289,14.289,0,0,0,1.544-2.205c.573-1.1,1.125-2.205,1.676-3.352l.816-1.7a5.513,5.513,0,0,1,4.41-3.109l4.763-.684c4.41-.617,5.447-.221,8.358,3.2l.706.838c.992,1.169,1.985,2.338,3.043,3.44a1.963,1.963,0,0,0,2.8.507c3.242-1.72,6.108-3.33,8.821-4.874,1.544-.9,1.742-1.433,1.213-3.22s-1.257-3.947-2.051-6.285a5.888,5.888,0,0,1,.992-5.976l1.125-1.367c.86-1.014,1.72-2.051,2.47-3.131a5.888,5.888,0,0,1,5.976-2.668h.463l6.616.529a1.588,1.588,0,0,0,1.7-1.036,5.115,5.115,0,0,0,.551-1.125c.9-3.176,1.786-6.329,2.646-9.5a1.9,1.9,0,0,0-.97-2.338,25,25,0,0,0-2.558-1.411l-2.492-1.213-1.9-.9a5.094,5.094,0,0,1-2.955-4.08c-.287-2.073-.507-4.168-.728-6.263l-.154-1.389a4.212,4.212,0,0,1,1.235-3.528c.816-.838,1.676-1.654,2.558-2.426l1.544-1.323c.706-.573,1.411-1.169,2.073-1.808,1.389-1.3,1.522-2.007.639-3.639-1.522-2.779-3.109-5.6-4.763-8.424a2.205,2.205,0,0,0-2.977-1.1L348.24,108.9l-3.528,1.125a5.16,5.16,0,0,1-5.138-1.014c-1.433-1.213-2.911-2.382-4.41-3.55l-1.367-1.1a4.741,4.741,0,0,1-1.83-3.881A19.549,19.549,0,0,1,332.1,97.7c.132-.926.11-1.323.176-1.963,0-1.279.221-2.47.243-3.7a1.941,1.941,0,0,0-1.323-2.051c-3.021-.882-6.263-1.742-10.475-2.8a1.764,1.764,0,0,0-2.1.97c-.551.926-1.081,1.9-1.588,2.867l-1.213,2.205c-.441.86-.9,1.7-1.367,2.558a3.837,3.837,0,0,1-2.933,2.073l-2.624.331c-1.566.2-3.153.4-4.719.64a5.624,5.624,0,0,1-5.6-2.205c-.97-1.191-2.007-2.36-3.043-3.506-.573-.64-1.147-1.279-1.7-1.941a1.7,1.7,0,0,0-2.073-.551,39.87,39.87,0,0,0-10.343,5.954,1.7,1.7,0,0,0-.287.926,8.1,8.1,0,0,0,.441,2.315q.529,1.808,1.125,3.639l.926,2.955a4.411,4.411,0,0,1-.573,4.014c-1.632,2.051-3.572,4.41-5.69,6.88a4.41,4.41,0,0,1-2.734,1.213,13.4,13.4,0,0,1-2.492,0h-.728l-1.941-.176c-1.213,0-2.426-.221-3.639-.243a2.382,2.382,0,0,0-2.382,1.786c-.375,1.191-.75,2.382-1.059,3.572-.463,1.764-.882,3.506-1.323,5.248l-.4,1.676v.463a5.646,5.646,0,0,0,2.69,2.205l3.661,1.919,2.426,1.257a3.992,3.992,0,0,1,2.205,3.109l.331,2.624c.2,1.411.375,2.823.6,4.234a6.329,6.329,0,0,1-2.58,6.351c-1.5,1.169-3.065,2.492-4.9,4.168-1.125,1.014-1.235,1.522-.573,2.823,1.191,2.205,2.779,5.381,4.543,8.4,1.147,2.007,1.566,2.205,3.925,1.522l2.205-.706,4.41-1.411a5.689,5.689,0,0,1,1.742-.573Zm30.631-5.337a22.934,22.934,0,0,1-22.758-20.95,22.923,22.923,0,1,1,45.67-3.991,21.788,21.788,0,0,1-4.785,16.253,22.868,22.868,0,0,1-16.186,8.6q-.934.09-1.874.088Zm-.154-43.752h-1.808a20.791,20.791,0,1,0,18.37,33.63,19.649,19.649,0,0,0,4.41-14.6h0a20.663,20.663,0,0,0-20.906-19.031Z" transform="translate(203.695 68.744)" fill="#d1d3d4"/>
    <path id="Path_10" data-name="Path 10" d="M175.9,49.405s-54.557-2.712-65.584,33.277v72.045s42.407-33.387,65.584-22.251Z" transform="translate(25.114 26.333)" fill="#d1d3d4"/>
    <path id="Path_11" data-name="Path 11" d="M110.927,156.43a1.3,1.3,0,0,1-.485,0,1.1,1.1,0,0,1-.617-.992V83.282a1.5,1.5,0,0,1,0-.309c11.158-36.386,66.157-34.115,66.708-34.071a1.1,1.1,0,0,1,1.059,1.1v83.071a1.1,1.1,0,0,1-.529.948,1.058,1.058,0,0,1-1.058,0c-22.295-10.761-63.952,21.788-64.437,22.052A.992.992,0,0,1,110.927,156.43Zm1.1-72.971V153.1c8.248-6.153,42.164-29.969,63.4-21.7V51.064C167.888,50.909,121.953,51.571,112.03,83.459Z" transform="translate(24.507 25.733)" fill="#270b3b"/>
    <path id="Path_12" data-name="Path 12" d="M242.552,344.608c-7.476,2.47-15.062,4.653-22.361,7.52-12.173,4.785-22.052,1.477-28.668-9.108-10.365-16.385-24.765-27.808-40.8-38.283-23.53-15.437-39.694-37.224-46.089-64.746-13.011-55.417,19.274-102.411,76.323-115.554,84.174-19.34,135.533,57.336,112.467,130.109-6.241,19.693-12.085,38.79-10.541,59.718.86,11.644-5.491,19.119-16.848,22.471C258.143,339.139,250.381,341.983,242.552,344.608Z" transform="translate(14.809 113.164)" fill="#fff"/>
    <path id="Path_13" data-name="Path 13" d="M210.474,356.006c-7.785,0-14.334-3.969-19.252-11.776-11.026-17.311-26.6-28.889-40.488-37.952a106.182,106.182,0,0,1-46.552-65.407c-6.153-26.264-2.514-51.205,10.519-72.133,13.783-22.052,37.489-38.04,66.642-44.744,36.916-8.49,69.95.6,93.017,25.6,24.941,27.014,32.88,67.634,20.751,105.983-5.932,18.744-12.063,38.128-10.5,59.3.86,11.8-5.226,19.847-17.642,23.618-5.4,1.588-10.85,3.462-16.12,5.27l-7.365,2.492h0l-6.836,2.205c-5.116,1.632-10.409,3.33-15.437,5.315A29.615,29.615,0,0,1,210.474,356.006ZM207.585,123.09a115.288,115.288,0,0,0-25.757,3.043c-28.668,6.616-51.779,22.052-65.253,43.774-12.724,20.42-16.275,44.788-10.254,70.457,6.307,26.86,21.655,48.515,45.626,64.062,14.091,9.2,29.991,20.972,41.128,38.636,6.505,10.3,15.679,13.231,27.3,8.667,5.138-2.007,10.453-3.7,15.613-5.359l6.814-2.205,7.343-2.492c5.271-1.808,10.739-3.7,16.208-5.293,11.291-3.33,16.826-10.7,16.054-21.325-1.61-21.611,4.609-41.194,10.585-60.137,11.908-37.489,4.146-77.382-20.244-103.822A86.312,86.312,0,0,0,207.585,123.09Zm35.57,222.133Z" transform="translate(14.206 112.549)" fill="#270b3b"/>
    <rect id="Rectangle_135" data-name="Rectangle 135" width="84.174" height="23.905" rx="4.67" transform="translate(217.266 471.279) rotate(-18.46)" fill="#fff"/>
    <path id="Path_14" data-name="Path 14" d="M160.633,263.463a11.335,11.335,0,0,1-10.806-7.784l-1.059-3.153a11.423,11.423,0,0,1,7.211-14.422l60.291-20.134a11.445,11.445,0,0,1,14.444,7.211l1.036,3.131a11.423,11.423,0,0,1-7.211,14.444h0l-60.291,20.09a11.4,11.4,0,0,1-3.617.617ZM219.887,219.6a9.438,9.438,0,0,0-2.911.463L156.6,240.2a9.218,9.218,0,0,0-5.734,11.622l1.058,3.131a9.064,9.064,0,0,0,4.609,5.315,9.174,9.174,0,0,0,7.035.507l60.291-20.134a9.2,9.2,0,0,0,5.8-11.644l-1.036-3.131a9.218,9.218,0,0,0-8.733-6.263Zm4.41,22.052Z" transform="translate(70.751 228.843)" fill="#270b3b"/>
    <rect id="Rectangle_136" data-name="Rectangle 136" width="84.174" height="23.905" rx="4.67" transform="translate(224.855 493.974) rotate(-18.46)" fill="#fff"/>
    <path id="Path_15" data-name="Path 15" d="M164.07,273.8a11.467,11.467,0,0,1-10.806-7.807l-1.036-3.131a11.291,11.291,0,0,1,.617-8.821,11.026,11.026,0,0,1,6.616-5.711l60.291-20.134a11.379,11.379,0,0,1,14.312,7.3l1.037,3.153a11.357,11.357,0,0,1-7.189,14.422h0L167.62,273.2A11.534,11.534,0,0,1,164.07,273.8Zm59.277-43.884a9,9,0,0,0-2.933.485l-60.291,20.09a9.24,9.24,0,0,0-5.315,4.631,9.02,9.02,0,0,0-.485,7.013l1.036,3.131A9.174,9.174,0,0,0,167,271.084l60.291-20.134a9.174,9.174,0,0,0,5.8-11.644l-1.036-3.131a9.152,9.152,0,0,0-4.609-5.315,9.262,9.262,0,0,0-4.1-.948Zm4.41,22.052Z" transform="translate(74.877 241.201)" fill="#270b3b"/>
    <path id="Path_16" data-name="Path 16" d="M220.3,238.57c2.845,8.556-8.821,20.112-25.8,25.823s-33.277,3.4-36.122-5.138Z" transform="translate(83.037 254.375)" fill="#270b3b"/>
    <path id="Path_17" data-name="Path 17" d="M177.091,269.225a37.494,37.494,0,0,1-5.535-.375c-7.255-1.037-12.107-4.1-13.628-8.645a1.147,1.147,0,0,1,.706-1.411l61.923-20.663a1.1,1.1,0,0,1,1.389.684c1.522,4.565-.485,9.924-5.667,15.106a53.83,53.83,0,0,1-20.817,12.107,58.611,58.611,0,0,1-18.37,3.2Zm-16.627-8.711c1.61,3.176,5.6,5.337,11.4,6.153a57.182,57.182,0,0,0,42.848-14.29c4.124-4.146,6.02-8.27,5.4-11.776Z" transform="translate(82.431 253.778)" fill="#270b3b"/>
    <path id="Path_18" data-name="Path 18" d="M200.11,294.736a1.147,1.147,0,0,1-1.081-.838l-.551-2.205c-4.41-18.59-9.13-37.687-17.333-55.131a72.111,72.111,0,0,1-35.637-2.205,38.789,38.789,0,0,1-17.642-10.607,20.817,20.817,0,0,1-4.918-19.715A19.671,19.671,0,0,1,149.72,193.67c7.939,4.587,16.429,13.849,25.272,27.521a121.3,121.3,0,0,1,7.3,12.989,73.28,73.28,0,0,0,27.168-11.6c-.176-.794-.353-1.566-.507-2.36l-.4-1.941c-3.176-15.04-7.1-33.762-.6-48.515,1.036-2.382,4.94-10.21,11.181-11.511a9.042,9.042,0,0,1,8.248,2.69,30.322,30.322,0,0,1,8.711,26.242,49.375,49.375,0,0,1-12.129,25.184A69.954,69.954,0,0,1,211.93,223.4a250.951,250.951,0,0,0,21.722,58.152,1.1,1.1,0,0,1-.485,1.5,1.125,1.125,0,0,1-1.478-.485,253.18,253.18,0,0,1-21.7-57.8A75.707,75.707,0,0,1,183.482,236.1c8.137,17.443,12.768,36.452,17.245,54.976l.573,2.205a1.1,1.1,0,0,1-.816,1.323ZM141.583,193.693a18.369,18.369,0,0,0-6.616,1.279,16.231,16.231,0,0,0-9.879,9.615,18.877,18.877,0,0,0,4.41,17.642,36.629,36.629,0,0,0,16.561,9.968,69.884,69.884,0,0,0,33.96,2.337,121.3,121.3,0,0,0-6.9-12.217c-8.644-13.364-16.892-22.383-24.522-26.816a14.2,14.2,0,0,0-7.013-1.808Zm79.388-33.453a7.731,7.731,0,0,0-1.213.11c-4.124.882-7.674,5.866-9.615,10.254-6.2,14.047-2.36,32.373.728,47.126l.419,1.919a8.251,8.251,0,0,0,.287,1.433,67.132,67.132,0,0,0,10.894-10.188,47.148,47.148,0,0,0,11.622-24.037,28.139,28.139,0,0,0-8-24.257,7.674,7.674,0,0,0-5.116-2.36Z" transform="translate(39.455 157.391)" fill="#d1d3d4"/>
    <path id="Path_19" data-name="Path 19" d="M270.213,76.611c-.662,0-30.873,85.563-30.873,85.563h81.946L338.443,72.73Z" transform="translate(180.612 54.5)" fill="#fff"/>
    <path id="Path_20" data-name="Path 20" d="M321.838,163.868H239.98a1.08,1.08,0,0,1-.882-.463,1.1,1.1,0,0,1-.154-1.014c30.013-85.276,30.719-86.269,31.777-86.269l68.23-3.881a1.1,1.1,0,0,1,.882.375,1.191,1.191,0,0,1,.265.926L322.94,162.964A1.081,1.081,0,0,1,321.838,163.868Zm-80.292-2.205h79.388l16.716-87.151-66.157,3.749C269.177,83.6,252.77,129.8,241.545,161.663Z" transform="translate(180.061 53.909)" fill="#270b3b"/>
    <path id="Path_21" data-name="Path 21" d="M247.388,119.318a1.1,1.1,0,0,1-.882-.419,1.147,1.147,0,0,1-.176-1.036l9.968-29.9a1.059,1.059,0,0,1,.9-.75l12.7-1.544a1.059,1.059,0,0,1,.97.375,1.1,1.1,0,0,1,.221,1.036l-9.24,30.587a1.081,1.081,0,0,1-.992.772l-13.408.882ZM258.172,89.3l-9.24,27.7,11.026-.706,8.534-28.227Z" transform="translate(188.971 70.078)" fill="#d1d3d4"/>
    <path id="Path_22" data-name="Path 22" d="M296.662,150.481H253.947a1.058,1.058,0,0,1-.882-.441,1.036,1.036,0,0,1-.177-.97l20.884-69.95a1.125,1.125,0,0,1,.992-.772l39.694-2.867a1.08,1.08,0,0,1,.9.4,1.058,1.058,0,0,1,.243.97l-17.818,72.773A1.125,1.125,0,0,1,296.662,150.481Zm-41.238-2.205H295.8l17.245-70.567L275.668,80.4Z" transform="translate(196.879 57.813)" fill="#d1d3d4"/>
    <path id="Path_23" data-name="Path 23" d="M225.84,110.7s9.482-7.961,13.871-11.577,8.622-13.54,12.592-13.5-3.131,11.842-3.131,11.842,14.753-11.313,19.34-11.644,7.167,7.41,6.02,9.813-13.65,8.27-18.281,12.9-19.847,15-19.847,15" transform="translate(164.342 70.048)" fill="#fff"/>
    <path id="Path_24" data-name="Path 24" d="M236.925,125.23a1.1,1.1,0,0,1-.617-2.029c.154,0,15.106-10.343,19.6-14.863a65.116,65.116,0,0,1,10.806-7.542,34.067,34.067,0,0,0,7.233-5.05,8.182,8.182,0,0,0-1.5-6.13,3.9,3.9,0,0,0-3.418-2.205c-3.131.221-12.923,6.946-18.744,11.4a1.1,1.1,0,0,1-1.411,0,1.081,1.081,0,0,1-.2-1.389c2.668-4.41,4.631-9.284,4.1-10.166-1.852,0-4.41,3.55-6.616,6.616a35.151,35.151,0,0,1-5.4,6.616c-4.41,3.617-13.849,11.577-13.849,11.577l-1.433-1.676s9.5-7.983,13.871-11.6a33.433,33.433,0,0,0,5.006-6.153c2.735-3.9,5.337-7.586,8.27-7.586h0a2.205,2.205,0,0,1,1.985,1.1c.882,1.632-.309,4.962-1.742,7.939,4.829-3.462,12.526-8.622,15.9-8.821a6.087,6.087,0,0,1,5.4,3.065,10.012,10.012,0,0,1,1.676,8.314c-.684,1.411-3.374,3.109-8.071,5.976A63.954,63.954,0,0,0,257.5,109.9c-4.653,4.653-19.3,14.709-19.847,15.128a1.036,1.036,0,0,1-.728.2Z" transform="translate(163.908 69.348)" fill="#270b3b"/>
    <path id="Path_25" data-name="Path 25" d="M233.8,87.408a75.528,75.528,0,0,1,14.863-8.115c6.02-1.985,13.65-3.33,11.93-5.888s-16.01,1.147-16.01,1.147,8.336-12.768,13.011-15.3,11.379-2.338,8.071-4.763-13.231-2.8-16.782-1.014-23.53,23.75-24.544,24.919S233.8,87.408,233.8,87.408Z" transform="translate(162.448 29.943)" fill="#fff"/>
    <path id="Path_26" data-name="Path 26" d="M234.406,89.119a1.081,1.081,0,0,1-.662-.221c-4.41-3.308-9.769-7.674-9.968-9.527a1.411,1.411,0,0,1,.331-1.1c.2-.221,21.016-23.2,24.875-25.162s14.18-1.654,17.951,1.1c.419.309,1.522,1.125,1.3,2.205s-1.808,1.764-4.19,2.4a24.256,24.256,0,0,0-5.337,1.919c-2.977,1.61-8.027,8.314-11.026,12.57,5.138-1.147,12.79-2.4,14.4,0a2.205,2.205,0,0,1,.309,2.051c-.662,1.852-3.639,2.8-8.821,4.41-1.323.375-2.69.772-3.991,1.191a76.256,76.256,0,0,0-14.555,7.983,1.147,1.147,0,0,1-.617.176Zm-8.292-9.769a54.537,54.537,0,0,0,8.336,7.321,72.089,72.089,0,0,1,14.466-7.829c1.323-.419,2.712-.838,4.08-1.213,2.624-.772,7.035-2.051,7.343-2.933-.86-1.059-7.784-.309-14.863,1.522a1.1,1.1,0,0,1-1.169-.419,1.125,1.125,0,0,1,0-1.257c.353-.529,8.534-13.033,13.408-15.657a27.366,27.366,0,0,1,5.8-2.205A17.766,17.766,0,0,0,265.72,56l-.11-.11c-3.043-2.205-12.57-2.492-15.635-.926S229.135,75.954,226.114,79.35Z" transform="translate(161.84 29.334)" fill="#270b3b"/>
    <path id="Path_27" data-name="Path 27" d="M188.754,92.475s52.2,7.432,60.092,5.447L279.72,63.3l18.1,11.8s-9.527,28.447-22.582,44.876-98.463,19.979-98.463,19.979Z" transform="translate(105.213 43.135)" fill="#525491"/>
    <path id="Path_28" data-name="Path 28" d="M236.163,213.27s-6.02,13.011-4.653,18.193,24.677,39.584,28.051,35.7-1.72-37.489-1.72-37.489Z" transform="translate(170.932 223.883)" fill="#270b3b"/>
    <path id="Path_29" data-name="Path 29" d="M259.45,269.14h-.617c-6.461-1.522-26.683-32.571-27.786-36.761-1.411-5.425,4.08-17.642,4.719-18.943a1.1,1.1,0,0,1,.728-.6,1.08,1.08,0,0,1,.926.176L259.1,229.336a1.036,1.036,0,0,1,.419.706c.86,5.711,4.984,34.424,1.456,38.481a1.941,1.941,0,0,1-1.522.617Zm-22.251-53.7c-1.83,4.234-4.962,12.68-4.036,16.23,1.544,5.844,22.559,35.173,26.242,35.173h0c1.941-2.205,0-22.405-2.029-36.188Z" transform="translate(170.338 223.32)" fill="#270b3b"/>
    <path id="Path_30" data-name="Path 30" d="M245.793,201.02,233.51,228.034l21.677,16.319,16.253-31.6Z" transform="translate(173.586 209.119)" fill="#fff"/>
    <path id="Path_31" data-name="Path 31" d="M255.793,246.067a1.191,1.191,0,0,1-.662-.221l-21.677-16.319a1.125,1.125,0,0,1-.353-1.345l12.283-27.014a1.169,1.169,0,0,1,.639-.573,1.1,1.1,0,0,1,.838,0l25.647,11.732a1.124,1.124,0,0,1,.6.639,1.169,1.169,0,0,1,0,.86l-16.253,31.6a1.036,1.036,0,0,1-.75.573Zm-20.31-17.774,19.847,15,15.15-29.418-23.6-10.784Z" transform="translate(172.98 208.507)" fill="#270b3b"/>
    <path id="Path_32" data-name="Path 32" d="M243.683,131.83s90.657,23,108.453,37.489S356.259,288,334.692,307.19l-33.916-17.84s18.083-79.829,11.445-86.4-81.439-16.208-81.439-16.208L181.87,132.029Z" transform="translate(111.348 125.729)" fill="#270b3b"/>
    <path id="Path_33" data-name="Path 33" d="M335.3,308.9a1.014,1.014,0,0,1-.507-.132l-33.916-17.84a1.1,1.1,0,0,1-.573-1.213c6.946-30.631,16.275-80.91,11.754-85.387-5.248-5.182-60.115-13.231-80.8-15.9a1.036,1.036,0,0,1-.684-.353l-48.912-54.712a1.081,1.081,0,0,1-.2-1.169,1.125,1.125,0,0,1,1.014-.662l61.746-.2h.287c3.7.948,91.1,23.243,108.894,37.709,6.616,5.359,8.292,20.884,8.556,32.968.816,37.092-10.585,92.884-25.978,106.579a1.014,1.014,0,0,1-.684.309Zm-32.659-19.516,32.483,17.113c14.687-14.18,25.47-68.23,24.676-104.374-.353-16.429-3.109-27.565-7.74-31.336-17.091-13.915-103.932-36.21-107.9-37.246l-59.232.221,47.015,52.573c9.394,1.213,74.978,9.924,81.594,16.473,1.941,1.919,3.771,8.821-2.933,46.619C307.444,267.613,303.519,285.387,302.637,289.379Z" transform="translate(110.744 125.127)" fill="#270b3b"/>
    <path id="Path_34" data-name="Path 34" d="M207.485,233.41l-2.845,24.9,24.037,11.511,5.469-34.357Z" transform="translate(138.791 248.156)" fill="#fff"/>
    <path id="Path_35" data-name="Path 35" d="M229.283,271.468a1.3,1.3,0,0,1-.485,0l-24.037-11.511a1.125,1.125,0,0,1-.617-1.125l2.845-24.9a1.058,1.058,0,0,1,1.191-.97l26.661,2.051a1.059,1.059,0,0,1,.772.419,1.015,1.015,0,0,1,.221.86L230.3,270.542a1.059,1.059,0,0,1-.573.794,1.014,1.014,0,0,1-.441.132Zm-22.868-13.231,22.052,10.541,5.05-31.733-24.412-1.874Z" transform="translate(138.185 247.609)" fill="#270b3b"/>
    <path id="Path_36" data-name="Path 36" d="M169.68,156.6S252,216.844,253.1,245.005s-9.769,117.142-9.769,117.142l41.37,9.9s29.881-118.244,19.847-148.39-68.009-93.039-68.009-93.039Z" transform="translate(96.656 124.271)" fill="#270b3b"/>
    <path id="Path_37" data-name="Path 37" d="M285.274,373.751h-.265l-41.282-9.946a1.081,1.081,0,0,1-.838-1.191c0-.882,10.85-89.246,9.747-116.987-1.058-27.3-82.167-86.952-82.983-87.548a1.169,1.169,0,0,1-.441-1.036,1.147,1.147,0,0,1,.706-.882l66.84-25.955a1.081,1.081,0,0,1,1.213.265c2.36,2.58,58.108,63.422,68.164,93.436s-18.5,144.178-19.847,149.007A1.1,1.1,0,0,1,285.274,373.751Zm-40.157-11.842,39.341,9.416c2.933-11.8,28.933-118.708,19.538-146.714s-61.482-85.827-67.215-92.09L172.5,157.485c11.864,8.821,81.241,61.57,82.277,88.077S246.286,352.118,245.117,361.909Z" transform="translate(96.086 123.67)" fill="#231f20"/>
    <path id="Path_38" data-name="Path 38" d="M181.219,106.625a19.847,19.847,0,0,1-8.975-3.484c-5.006-3.661-7.586-9.725-9.813-15.437A33.08,33.08,0,0,1,159.52,75.4c.154-7.5,5.138-13.959,10.254-19.428,3.837-4.1,8.2-9.328,6.373-14.643a13.23,13.23,0,0,1-1.169-3.484c-.132-3.021,3.925-4.785,6.748-3.639a13.849,13.849,0,0,1,6.042,6.616,8.667,8.667,0,0,0,2.205-7.807c-.243-1.125-.706-2.338-.132-3.308a3.286,3.286,0,0,1,2.051-1.257A15.3,15.3,0,0,1,210,39.476a10.144,10.144,0,0,0,.882-8.336,30.035,30.035,0,0,1,19.847,33.078,61.323,61.323,0,0,1-3.991,14.951,13.1,13.1,0,0,1-3.793,4.08c-10.276,8.578-14.907,19.406-28.8,22.559a36.739,36.739,0,0,1-12.923.816Z" transform="translate(84.411 0.692)" fill="#fff"/>
    <path id="Path_39" data-name="Path 39" d="M185.838,108.684a31.448,31.448,0,0,1-4.146-.265,20.641,20.641,0,0,1-9.46-3.7c-5.182-3.793-7.873-9.99-10.188-16.01A33.452,33.452,0,0,1,159,75.981c.176-7.983,5.425-14.665,10.563-20.156,4.08-4.41,7.674-9.063,6.131-13.518-.132-.353-.265-.684-.419-1.014a7.85,7.85,0,0,1-.816-2.8,4.543,4.543,0,0,1,2.073-3.925,6.748,6.748,0,0,1,6.175-.794,12.746,12.746,0,0,1,5.756,5.645,7.7,7.7,0,0,0,.948-5.6l-.132-.485a4.653,4.653,0,0,1,.11-3.639,4.256,4.256,0,0,1,2.734-1.742,15.723,15.723,0,0,1,12.085,1.985,16.275,16.275,0,0,1,6.351,6.946,8.82,8.82,0,0,0-.22-4.852,1.1,1.1,0,0,1,1.411-1.389A31.513,31.513,0,0,1,230.405,48.57a31.049,31.049,0,0,1,1.808,16.319,61.742,61.742,0,0,1-3.859,15.437,13.541,13.541,0,0,1-3.815,4.234l-.265.221a89.338,89.338,0,0,0-8.556,8.534c-5.623,6.175-11.026,12.018-20.707,14.246A42.6,42.6,0,0,1,185.838,108.684Zm-5.359-73.125a4.719,4.719,0,0,0-2.624.794,2.4,2.4,0,0,0-1.147,2.051,5.866,5.866,0,0,0,.64,2.007c.154.4.331.772.463,1.169,2.205,6.329-3.528,12.46-6.616,15.745-4.851,5.182-9.813,11.467-9.968,18.7a31.581,31.581,0,0,0,2.845,11.886c2.205,5.954,4.741,11.6,9.438,15.04a18.567,18.567,0,0,0,8.468,3.286h0a35.283,35.283,0,0,0,12.548-.816c9.108-2.073,14.2-7.652,19.582-13.584a91.233,91.233,0,0,1,8.821-8.821l.265-.221a11.908,11.908,0,0,0,3.242-3.484,63.558,63.558,0,0,0,3.639-14.819A29.043,29.043,0,0,0,228.4,49.319,29.418,29.418,0,0,0,212.962,33.4a11.026,11.026,0,0,1-1.5,7.123,1.1,1.1,0,0,1-2.007-.331,14.18,14.18,0,0,0-16.738-10.166,2.205,2.205,0,0,0-1.389.728c-.265.441,0,1.169.132,1.963l.132.529a9.725,9.725,0,0,1-2.4,8.821.992.992,0,0,1-.926.331,1.081,1.081,0,0,1-.838-.529,12.658,12.658,0,0,0-5.491-6.108,3.969,3.969,0,0,0-1.455-.2Z" transform="translate(83.784)" fill="#270b3b"/>
    <path id="Path_40" data-name="Path 40" d="M192.132,53.71s7.7,14.18,5.623,16.8-8,.243-8,.243" transform="translate(120.845 31.577)" fill="#fff"/>
    <path id="Path_41" data-name="Path 41" d="M195.09,73.5a15.834,15.834,0,0,1-5.16-1.059,1.1,1.1,0,0,1-.6-1.433,1.08,1.08,0,0,1,1.411-.617c1.345.529,5.469,1.7,6.748,0,.86-1.1-1.808-8.38-5.734-15.591a1.081,1.081,0,0,1,.441-1.5,1.125,1.125,0,0,1,1.5.441c2.4,4.41,7.806,15.128,5.513,18.017A5.028,5.028,0,0,1,195.09,73.5Z" transform="translate(120.246 30.928)" fill="#231f20"/>
    <path id="Path_42" data-name="Path 42" d="M216.97,49.011c5.248,5.094,2.779,14.687,2.205,21.016q-1.257,13.364-3.131,26.639c-.794,5.623-15.437,4.41-17.862,2.58l-.309,18.789s-4.41,10.012-15.657,3.55-13.386-14.356-13.386-14.356l3.2-25.669s9.637.9,16.341-10.122,8-28.668,8-28.668S211.854,44.027,216.97,49.011Z" transform="translate(95.632 18.391)" fill="#fff"/>
    <path id="Path_43" data-name="Path 43" d="M189.931,125.451a15.635,15.635,0,0,1-7.63-2.338c-11.577-6.616-13.849-14.6-13.937-14.929a.9.9,0,0,1,0-.419l3.2-25.691a1.125,1.125,0,0,1,1.191-.948c.375,0,9.086.662,15.437-9.593,6.483-10.651,7.806-28.051,7.829-28.227a1.1,1.1,0,0,1,1.191-1.014c.639,0,15.922,1.3,21.28,6.616h0c4.763,4.609,3.727,12.305,2.911,18.5-.154,1.191-.309,2.36-.419,3.418-.816,8.821-1.874,17.862-3.109,26.683a5.182,5.182,0,0,1-3.661,3.991,25.007,25.007,0,0,1-14.224.132l-.22,17.113a1.432,1.432,0,0,1,0,.419,11.577,11.577,0,0,1-6.4,5.888,10.431,10.431,0,0,1-3.44.4Zm-19.384-17.642c.419,1.191,3.065,7.829,12.857,13.408a11.158,11.158,0,0,0,9,1.654,9.372,9.372,0,0,0,5.006-4.41l.243-18.546a1.125,1.125,0,0,1,.639-.97,1.081,1.081,0,0,1,1.147,0c1.323,1.059,9.394,2.205,13.8.4,1.389-.551,2.205-1.323,2.205-2.205,1.235-8.821,2.205-17.642,3.109-26.6a31.635,31.635,0,0,1,.419-3.484c.75-5.712,1.7-12.79-2.205-16.649s-15.282-5.381-18.833-5.778c-.4,4.124-2.205,18.458-8.049,28.095s-13.5,10.563-16.319,10.651Z" transform="translate(95.04 17.811)" fill="#270b3b"/>
    <path id="Path_44" data-name="Path 44" d="M196.03,66.263s-7.255,3.661-10.32-3.793" transform="translate(115.976 42.135)" fill="#fff"/>
    <path id="Path_45" data-name="Path 45" d="M192.693,68.879a7.829,7.829,0,0,1-2.757-.485,8.314,8.314,0,0,1-4.653-4.9,1.125,1.125,0,0,1,.617-1.455,1.1,1.1,0,0,1,1.433.617,6.131,6.131,0,0,0,3.374,3.661,7.674,7.674,0,0,0,5.447-.441,1.1,1.1,0,0,1,1.477.507,1.125,1.125,0,0,1-.485,1.477A11.025,11.025,0,0,1,192.693,68.879Z" transform="translate(115.366 41.525)" fill="#231f20"/>
    <path id="Path_46" data-name="Path 46" d="M191.01,62.529a12.15,12.15,0,0,0-1.985-6.329,17.751,17.751,0,0,0-2.867-4.41,5.954,5.954,0,0,0-4.675-1.874,5.425,5.425,0,0,0-3.749,2.47,10.012,10.012,0,0,0-1.478,4.41A19.119,19.119,0,0,0,183.6,74.437l-.441-.573" transform="translate(104.391 26.992)" fill="#fff"/>
    <path id="Path_47" data-name="Path 47" d="M184.205,76.167a.992.992,0,0,1-.639-.221A20.4,20.4,0,0,1,175.759,57.2a11.468,11.468,0,0,1,1.676-4.785,6.616,6.616,0,0,1,4.41-2.955,6.814,6.814,0,0,1,5.579,2.205,17.644,17.644,0,0,1,3.065,4.587,13.011,13.011,0,0,1,2.095,6.924,1.147,1.147,0,0,1-1.169,1.014,1.081,1.081,0,0,1-1.014-1.169,11.026,11.026,0,0,0-1.852-5.734,16.252,16.252,0,0,0-2.69-4.058,4.653,4.653,0,0,0-3.749-1.566,4.41,4.41,0,0,0-2.955,1.985,9.129,9.129,0,0,0-1.323,3.859,18.215,18.215,0,0,0,6.616,16.407h.11l.463.573a1.1,1.1,0,0,1-.882,1.786Z" transform="translate(103.786 26.431)" fill="#270b3b"/>
    <path id="Path_48" data-name="Path 48" d="M187.847,73.032s-7.365-3.021-10.453-8.512c0,0-.662,13.606,10.629,18.524Z" transform="translate(105.944 44.605)" fill="#270b3b"/>
    <path id="Path_49" data-name="Path 49" d="M188.624,84.7a1.147,1.147,0,0,1-.463,0c-11.842-5.16-11.269-19.45-11.269-19.6a1.1,1.1,0,0,1,.86-1.014,1.125,1.125,0,0,1,1.213.529c2.845,5.094,9.835,8,9.9,8.027a1.1,1.1,0,0,1,.684,1.014l.176,10.034a1.1,1.1,0,0,1-.507.926A.992.992,0,0,1,188.624,84.7ZM179.34,68.671A17.642,17.642,0,0,0,187.5,81.9l-.11-7.5A27.763,27.763,0,0,1,179.34,68.671Z" transform="translate(105.343 44.048)" fill="#270b3b"/>
    <ellipse id="Ellipse_10" data-name="Ellipse 10" cx="3.203" cy="1.259" rx="3.203" ry="1.259" transform="translate(306.285 80.556) rotate(-75.548)" fill="#270b3b"/>
    <path id="Path_50" data-name="Path 50" d="M174.576,69s32.615,1.522,45.714,19.053,23.64,84.593,30.057,89S275,206.3,274.782,207.555s-93.392,30.873-93.392,30.873-5.469-21.5-15.745-49.353S147.408,70.9,174.576,69Z" transform="translate(80.248 50.005)" fill="#525491"/>
    <path id="Path_51" data-name="Path 51" d="M222.535,173.636a1.147,1.147,0,0,1-.86-.419,116.369,116.369,0,0,1-21.214-47.787c-4.807-27.08-13.8-43.531-13.893-43.686a1.1,1.1,0,1,1,1.919-1.059c0,.154,9.262,16.892,14.135,44.347a114.164,114.164,0,0,0,20.773,46.795,1.1,1.1,0,0,1-.154,1.544A1.125,1.125,0,0,1,222.535,173.636Z" transform="translate(116.839 63.393)" fill="#270b3b"/>
    <path id="Path_52" data-name="Path 52" d="M196.1,84.107c.75.926,37.621,59.74,37.621,59.74l73.324-35.284L324.947,129.2s-61.79,46.707-85.894,54.623-79.388-78.175-78.771-87.636S185.511,70.986,196.1,84.107Z" transform="translate(85.324 62.177)" fill="#525491"/>
    <path id="Path_53" data-name="Path 53" d="M212.437,139.237a1.125,1.125,0,0,1-.948-.507s-32.9-52.418-33.409-53.168a1.1,1.1,0,0,1,1.852-1.191c.419.64,28.558,45.428,32.814,52.22L251.6,116.28a1.1,1.1,0,0,1,1.014,1.963l-39.694,20.773A1.08,1.08,0,0,1,212.437,139.237Z" transform="translate(106.604 67.977)" fill="#270b3b"/>
    <path id="Path_54" data-name="Path 54" d="M222.437,148.781c-15.437,0-32.02-13.033-49.529-38.856a1.081,1.081,0,0,1,.287-1.522,1.125,1.125,0,0,1,1.544.287c19.1,28.183,36.893,40.753,52.926,37.357s48.074-28.668,48.383-28.844a1.1,1.1,0,1,1,1.367,1.72c-1.323,1.059-32.637,25.735-49.309,29.263A26.463,26.463,0,0,1,222.437,148.781Z" transform="translate(100.309 97.267)" fill="#270b3b"/>
    <path id="Path_55" data-name="Path 55" d="M232.756,75.62l-1.742,5.248,4.3,5.6s-8.556,43.664-73.589,8.821l-20.906,7.63,12.415,16.914s78.242,30.1,84.328-32.77l1.1-7.013Z" transform="translate(61.873 57.983)" fill="#270b3b"/>
    <path id="Path_56" data-name="Path 56" d="M192.275,128.7a101.443,101.443,0,0,1-14.841-1.169,129.184,129.184,0,0,1-23.993-6.086.9.9,0,0,1-.485-.375l-12.415-16.914a1.081,1.081,0,0,1,.507-1.676l20.928-7.52a1.036,1.036,0,0,1,.882,0c24.544,13.231,43.752,16.583,57.049,10.3a28.4,28.4,0,0,0,14.819-17.973l-3.969-5.2a1.1,1.1,0,0,1-.176-1.014l1.742-5.226a1.125,1.125,0,0,1,.706-.706,1.081,1.081,0,0,1,.992.176l5.888,4.41a1.081,1.081,0,0,1,.441,1.036l-1.1,7.013c-1.522,15.856-7.806,27.323-18.612,34.027C212.167,127.071,201.868,128.7,192.275,128.7Zm-37.754-9.2c3.749,1.367,41.9,14.731,64.944.463,10.21-6.307,16.142-17.223,17.642-32.417l1.014-6.417-4.146-3.087L232.9,81.291l3.925,5.138a1.059,1.059,0,0,1,.2.882,29.925,29.925,0,0,1-16.1,19.979c-13.893,6.616-33.608,3.176-58.637-10.1l-19.075,6.858Z" transform="translate(61.27 57.341)" fill="#270b3b"/>
    <path id="Path_57" data-name="Path 57" d="M207.452,244.7s-5.866,22.052-5.072,23.971,36.96,47.677,40.356,33.519-11.247-45.979-11.247-45.979Z" transform="translate(135.978 261.763)" fill="#270b3b"/>
    <path id="Path_58" data-name="Path 58" d="M240.381,306.6c-10.431,0-37.621-34.975-38.437-36.915s2.8-16.319,5.028-24.677a1.014,1.014,0,0,1,.6-.706,1.125,1.125,0,0,1,.926,0l24.037,11.511a1.036,1.036,0,0,1,.529.529c.617,1.3,14.753,32.329,11.313,46.685a3.969,3.969,0,0,1-3.639,3.55Zm-31.557-59.74c-2.6,9.946-5.028,20.619-4.741,22.052,1.61,3.065,28.668,36.452,36.651,35.482.551,0,1.235-.353,1.588-1.875,3.087-12.834-9.416-41.37-11.026-44.9Z" transform="translate(135.4 261.167)" fill="#270b3b"/>
    <path id="Path_59" data-name="Path 59" d="M240.014,181.385a1.037,1.037,0,0,1-.86-.441l-31.314-39.8a1.1,1.1,0,1,1,1.742-1.345l31.292,39.8a1.1,1.1,0,0,1-.176,1.544,1.125,1.125,0,0,1-.684.243Z" transform="translate(142.317 134.745)" fill="#fff"/>
    <path id="Path_60" data-name="Path 60" d="M276.5,188.3l.882-52.793,18.039-84.46-1.764,47.809Z" transform="translate(225.399 28.371)" fill="#fff"/>
    <path id="Path_61" data-name="Path 61" d="M277.1,190.012h-.11a1.125,1.125,0,0,1-.992-1.125l.882-52.793,18.061-84.681a1.125,1.125,0,0,1,1.213-.86,1.1,1.1,0,0,1,.97,1.147L295.362,99.51l-17.157,89.6A1.081,1.081,0,0,1,277.1,190.012Zm17.355-125.7-15.437,72.111-.639,39.871,14.753-76.962Z" transform="translate(224.796 27.765)" fill="#270b3b"/>
    <path id="Path_62" data-name="Path 62" d="M89.892,130.38c.353-1.036.706-2.205,1.081-3.153.2-.529.4-1.081.64-1.61a1.522,1.522,0,0,1,1.654-1.014,14.158,14.158,0,0,1,2.536.419,10.1,10.1,0,0,0,1.367.176,1.676,1.676,0,0,0,.948-.309c.992-.926,1.919-1.9,2.845-2.889a1.522,1.522,0,0,0,.287-1.345c-.221-1.014-.463-2.051-.684-3.065a3.86,3.86,0,0,1,0-1.235,1.1,1.1,0,0,1,.4-.772,18.677,18.677,0,0,1,5.094-2.205,1.279,1.279,0,0,1,1.455.529c.64.882,1.323,1.742,1.941,2.668a2.205,2.205,0,0,0,2.007,1.014,25.01,25.01,0,0,0,3.374-.154,1.257,1.257,0,0,0,1.014-.617c.419-.6.794-1.213,1.191-1.808s.662-1.036,1.014-1.522a1.279,1.279,0,0,1,1.566-.551l4.653,1.676a1.367,1.367,0,0,1,.838,1.522,14.974,14.974,0,0,1-.419,2.58,3.341,3.341,0,0,1-.154,1.213,1.676,1.676,0,0,0,.529,1.433c.816.772,1.654,1.544,2.448,2.338a1.852,1.852,0,0,0,1.808.529l3.352-.772a1.477,1.477,0,0,1,1.852.9c.64,1.323,1.257,2.668,1.852,4.014a1.61,1.61,0,0,1-.573,2.205c-.573.441-1.191.838-1.786,1.279a14.931,14.931,0,0,0-1.235.992,1.345,1.345,0,0,0-.507,1.147q0,1.753,0,3.506a1.852,1.852,0,0,0,.948,1.544c.617.375,1.279.75,1.9,1.147a13.229,13.229,0,0,1,1.169.75,1.389,1.389,0,0,1,.507,1.676c-.507,1.411-1.036,2.823-1.566,4.212a2.646,2.646,0,0,1-.353.6,1.235,1.235,0,0,1-1.3.617l-3.043-.507h-.221a2.205,2.205,0,0,0-2.205.794c-.573.684-1.235,1.3-1.83,1.941a2.205,2.205,0,0,0-.573,2.205c.243.992.485,1.963.684,2.955a1.491,1.491,0,0,1-.948,1.963c-1.367.662-2.757,1.279-4.168,1.9a1.411,1.411,0,0,1-1.83-.485A24.306,24.306,0,0,1,117.9,156.6c-1.1-1.522-1.367-1.676-3.242-1.566h-2.205a2.029,2.029,0,0,0-1.72,1.014c-.441.728-.882,1.477-1.345,2.205a7.5,7.5,0,0,1-.838,1.036,1.036,1.036,0,0,1-1.147.309l-4.41-1.654c-.2,0-.375-.221-.573-.331a1.235,1.235,0,0,1-.617-1.3c.154-1.014.331-2.007.485-3a6.606,6.606,0,0,0,0-.926,1.477,1.477,0,0,0-.507-1.345L99.4,148.838a1.764,1.764,0,0,0-1.742-.441l-3.087.728h-.11c-1.3.221-1.72,0-2.205-1.125s-1.191-2.668-1.742-4.014a1.323,1.323,0,0,1,.529-1.852c.794-.6,1.588-1.191,2.426-1.72a2.315,2.315,0,0,0,1.169-2.315,24.284,24.284,0,0,0-.132-3.153,1.367,1.367,0,0,0-.617-1.1c-.882-.573-1.764-1.1-2.624-1.676a2.933,2.933,0,0,1-1.389-1.433Zm33.343,5.866a9.99,9.99,0,0,0-10.056-9.99,10.122,10.122,0,0,0-9.791,10.012,9.946,9.946,0,1,0,19.847,0Z" transform="translate(0.467 102.855)" fill="#fff"/>
    <path id="Path_63" data-name="Path 63" d="M108.133,161.411a1.919,1.919,0,0,1-.772-.154l-4.41-1.654a3.484,3.484,0,0,1-.706-.375,2.4,2.4,0,0,1-1.169-2.448l.485-3a4.9,4.9,0,0,0,0-.816c0-.287,0-.4-.132-.463l-2.051-1.9-.353-.353a.662.662,0,0,0-.728-.154l-2.205.507-.816.176c-1.963.353-2.867,0-3.617-1.7S90.447,146.371,89.9,145a2.382,2.382,0,0,1,.882-3.131c.816-.617,1.632-1.213,2.492-1.764a1.3,1.3,0,0,0,.684-1.323c0-.662,0-1.345,0-2.007V135.61a.287.287,0,0,0,0-.22l-2.646-1.676a3.859,3.859,0,0,1-1.808-2.029.882.882,0,0,1,0-.331v-.4a.992.992,0,0,1,0-.353l.265-.794c.265-.794.529-1.588.816-2.36s.419-1.125.662-1.676a2.624,2.624,0,0,1,2.8-1.7,9.9,9.9,0,0,1,1.742.287l1.191.2h.816a.684.684,0,0,0,.287,0c.882-.86,1.808-1.808,2.712-2.779v-.375l-.309-1.323c-.132-.6-.243-1.169-.375-1.742a5.931,5.931,0,0,1-.132-1.544,2.205,2.205,0,0,1,.926-1.61,19.517,19.517,0,0,1,5.16-2.4,2.36,2.36,0,0,1,2.624.926l.684.9c.441.6.882,1.191,1.279,1.808a1.014,1.014,0,0,0,1.014.529h3.4a13.975,13.975,0,0,0,.838-1.191l.684-1.059c.287-.419.551-.838.86-1.257a2.36,2.36,0,0,1,2.8-.926c1.566.551,3.153,1.1,4.7,1.7a2.448,2.448,0,0,1,1.544,2.624,9.969,9.969,0,0,1-.287,1.808l-.132.86a9.829,9.829,0,0,0-.154,1.125.529.529,0,0,0,.176.529l.617.6c.617.573,1.257,1.169,1.852,1.786a.772.772,0,0,0,.816.221l1.61-.375,1.72-.4a2.624,2.624,0,0,1,3.109,1.5c.64,1.345,1.257,2.69,1.83,4.058a2.646,2.646,0,0,1-.882,3.528c-.353.287-.728.529-1.1.794l-.706.507-1.169.926a.287.287,0,0,0-.132.309v3.462a.75.75,0,0,0,.4.662l.838.485,1.1.662c.419.265.838.529,1.235.838a2.47,2.47,0,0,1,.882,2.933c-.507,1.389-1.036,2.8-1.588,4.212a3.351,3.351,0,0,1-.419.75,2.315,2.315,0,0,1-2.448,1.147l-3.021-.485h-.309a1.1,1.1,0,0,0-1.213.463c-.419.485-.882.948-1.345,1.411l-.529.551a1.147,1.147,0,0,0-.309,1.169c.265.992.507,2.007.706,3a2.514,2.514,0,0,1-1.544,3.2c-1.389.662-2.8,1.279-4.212,1.874a2.492,2.492,0,0,1-3.153-.794c-.441-.6-.882-1.191-1.3-1.808l-.265-.353c-.838-1.191-.838-1.191-2.205-1.1h-2.205a.86.86,0,0,0-.816.485l-.463.728c-.287.507-.6,1.014-.9,1.5a7.784,7.784,0,0,1-.97,1.213A2.205,2.205,0,0,1,108.133,161.411Zm-9.527-13.562a2.779,2.779,0,0,1,1.963.794l.375.353,2.007,1.874a2.58,2.58,0,0,1,.86,2.205v1.014l-.485,3.021.132.2.353.221,4.41,1.654c.243-.309.485-.6.684-.9s.6-.948.86-1.433l.463-.75a3.131,3.131,0,0,1,2.6-1.544h2.205a3.7,3.7,0,0,1,4.19,2.029l.265.375c.419.573.816,1.147,1.257,1.676s.265.287.551.154c1.389-.573,2.757-1.191,4.124-1.852a1.718,1.718,0,0,0,.4-.243h0a1.567,1.567,0,0,0,0-.507c-.2-.97-.419-1.941-.662-2.889a3.264,3.264,0,0,1,.838-3.242l.551-.573a16.933,16.933,0,0,0,1.213-1.3,3.264,3.264,0,0,1,3.418-1.169l3.2.529.221-.154a1.941,1.941,0,0,0,.22-.375c.529-1.389,1.059-2.779,1.566-4.19a.549.549,0,0,0-.154-.419,8.816,8.816,0,0,0-1.059-.706l-1.059-.617-.838-.507a2.955,2.955,0,0,1-1.478-2.448V134.6a2.47,2.47,0,0,1,.9-2.007,14.58,14.58,0,0,1,1.279-1.036l.772-.551.992-.706c.463-.4.463-.441.243-.926-.6-1.345-1.191-2.668-1.83-3.991-.154-.309-.221-.375-.64-.287l-1.7.4-1.632.353a2.933,2.933,0,0,1-2.845-.816c-.6-.6-1.191-1.169-1.808-1.72l-.617-.6a2.778,2.778,0,0,1-.86-2.205,3.266,3.266,0,0,1,.176-1.3l.154-.9a14.219,14.219,0,0,0,.243-1.61c0-.309,0-.353-.132-.375-1.522-.6-3.065-1.125-4.609-1.676a.324.324,0,0,0-.309.154c-.132.154-.529.772-.794,1.169L118.1,117l-.706,1.1a2.448,2.448,0,0,1-1.874,1.1H112.1a3.153,3.153,0,0,1-3-1.5q-.6-.86-1.257-1.72l-.684-.926c0-.132-.132-.154-.287,0a17.642,17.642,0,0,0-4.763,2.205,5.581,5.581,0,0,1,.2.86c.11.551.243,1.125.375,1.7l.309,1.367a2.558,2.558,0,0,1-.573,2.205c-.926,1.014-1.874,1.985-2.867,2.933a2.756,2.756,0,0,1-1.7.617,9.279,9.279,0,0,1-1.257-.154l-1.191-.2c-.529,0-1.059-.2-1.588-.243s-.375,0-.529.353-.441,1.014-.617,1.544l-.794,2.338-.221.617a2.47,2.47,0,0,0,.86.706l2.514,1.7a2.4,2.4,0,0,1,1.1,1.963V138.7a3.418,3.418,0,0,1-1.676,3.33c-.816.529-1.588,1.081-2.36,1.676a1.566,1.566,0,0,0-.265.243v.309c.551,1.323,1.1,2.646,1.72,3.947.221.485.331.573.353.573a2.007,2.007,0,0,0,.728,0l.882-.2,2.205-.485A3.286,3.286,0,0,1,98.606,147.849Zm15.216,0h0a11.026,11.026,0,0,1-7.762-18.811,11.18,11.18,0,0,1,7.63-3.308h0a11.026,11.026,0,0,1,11.158,11.026,10.563,10.563,0,0,1-2.977,7.608,11.026,11.026,0,0,1-8.049,3.506ZM113.69,128a8.953,8.953,0,0,0-6.064,2.668,8.81,8.81,0,0,0,6.219,15.062h0a8.821,8.821,0,0,0,6.483-2.757,8.534,8.534,0,0,0,2.382-6.02h0a8.821,8.821,0,0,0-8.953-8.821Zm11.2,8.821Z" transform="translate(0 102.279)" fill="#d1d3d4"/>
    <path id="Path_64" data-name="Path 64" d="M257.08,248.069c.485-1.919.948-3.859,1.455-5.778.243-1.014.551-1.985.86-2.977a2.779,2.779,0,0,1,2.823-2.073c1.544,0,3.065.221,4.609.331a13.235,13.235,0,0,0,2.47,0,2.734,2.734,0,0,0,1.632-.684c1.61-1.808,3.109-3.683,4.609-5.579a2.558,2.558,0,0,0,.309-2.448c-.551-1.808-1.147-3.595-1.676-5.381a7.413,7.413,0,0,1-.375-2.205,2.029,2.029,0,0,1,.573-1.455,33.453,33.453,0,0,1,8.821-4.918,2.205,2.205,0,0,1,2.668.706c1.3,1.5,2.646,2.933,3.9,4.41a3.661,3.661,0,0,0,3.727,1.477c1.985-.309,4.014-.507,6-.794a2.205,2.205,0,0,0,1.742-1.235c.617-1.125,1.191-2.205,1.808-3.418s1.036-1.941,1.61-2.889a2.205,2.205,0,0,1,2.69-1.191c2.867.728,5.734,1.478,8.556,2.205a2.426,2.426,0,0,1,1.742,2.558c0,1.544-.243,3.109-.353,4.653v2.205a3,3,0,0,0,1.147,2.47c1.588,1.257,3.2,2.492,4.719,3.815a3.308,3.308,0,0,0,3.352.639c1.941-.6,3.881-1.257,5.844-1.852a2.646,2.646,0,0,1,3.462,1.3q2.029,3.4,3.9,6.88a2.845,2.845,0,0,1-.684,4.058c-.97.9-2.007,1.7-2.977,2.58s-1.389,1.257-2.051,1.941a2.536,2.536,0,0,0-.75,2.205c.221,2.073.441,4.168.706,6.241a3.264,3.264,0,0,0,1.919,2.6l3.594,1.742a20.794,20.794,0,0,1,2.205,1.213,2.448,2.448,0,0,1,1.191,2.889c-.706,2.6-1.433,5.182-2.205,7.762a5.791,5.791,0,0,1-.529,1.125,2.2,2.2,0,0,1-2.205,1.3l-5.491-.441h-.419A3.925,3.925,0,0,0,328,273.87c-.9,1.3-1.963,2.492-2.955,3.727a3.9,3.9,0,0,0-.684,4.014c.6,1.7,1.191,3.418,1.7,5.16a2.624,2.624,0,0,1-1.389,3.661c-2.36,1.389-4.741,2.712-7.167,3.991a2.47,2.47,0,0,1-3.352-.6c-1.08-1.125-2.073-2.338-3.087-3.528-2.205-2.558-2.69-2.757-6.02-2.205l-3.881.551a3.572,3.572,0,0,0-2.911,2.051c-.684,1.389-1.323,2.779-2.051,4.146a12.1,12.1,0,0,1-1.345,1.985,1.808,1.808,0,0,1-2.007.706l-8.159-2.205a5.069,5.069,0,0,1-1.058-.485,2.205,2.205,0,0,1-1.3-2.205l.4-5.425a13.832,13.832,0,0,0,0-1.654,2.845,2.845,0,0,0-1.1-2.338c-1.566-1.191-3.087-2.4-4.631-3.617a3.131,3.131,0,0,0-3.153-.507c-1.72.6-3.462,1.125-5.182,1.676a.7.7,0,0,1-.2,0c-2.205.618-3.043.4-4.212-1.632s-2.536-4.587-3.727-6.924a2.382,2.382,0,0,1,.661-3.374c1.323-1.191,2.668-2.338,4.058-3.418a4.256,4.256,0,0,0,1.742-4.41c-.287-1.852-.485-3.727-.75-5.6a2.359,2.359,0,0,0-1.257-1.875l-4.962-2.58a5.116,5.116,0,0,1-2.668-2.338Zm60.556,5.337a17.84,17.84,0,0,0-19.472-16.275,18.149,18.149,0,0,0-15.988,19.362A17.884,17.884,0,0,0,301.361,272.7a17.642,17.642,0,0,0,16.275-19.3Z" transform="translate(201.993 222.185)" fill="#fff"/>
    <path id="Path_65" data-name="Path 65" d="M293.71,299.469a3.619,3.619,0,0,1-.816-.11l-2.205-.617-5.932-1.654a5.008,5.008,0,0,1-1.147-.529,3.352,3.352,0,0,1-2.007-3.352l.176-2.36c0-1.014.154-2.051.221-3.065a11.961,11.961,0,0,0,0-1.544,1.742,1.742,0,0,0-.684-1.5q-2.205-1.632-4.234-3.308l-.4-.309a2.029,2.029,0,0,0-2.205-.309L270.8,282l-1.522.485h-.221a3.992,3.992,0,0,1-5.491-2.205c-1.455-2.514-2.756-5.028-3.749-6.969a3.462,3.462,0,0,1,.926-4.7c1.544-1.389,2.845-2.514,4.1-3.484a3.154,3.154,0,0,0,1.345-3.286c-.176-1.169-.331-2.315-.485-3.484l-.265-2.205a1.257,1.257,0,0,0-.706-1.036l-1.985-1.059-2.955-1.522a6.13,6.13,0,0,1-3.175-2.911.924.924,0,0,1,0-.331v-.684a2.191,2.191,0,0,1,0-.375l.441-1.764c.331-1.345.662-2.69,1.014-4.036s.573-2.029.9-3.021a3.925,3.925,0,0,1,3.881-2.845,16.036,16.036,0,0,1,3.087.2l1.566.132h.64a8.471,8.471,0,0,0,1.654,0,1.985,1.985,0,0,0,.926-.309c1.676-1.919,3.242-3.881,4.565-5.535a1.544,1.544,0,0,0,.11-1.456c-.221-.772-.485-1.566-.728-2.338s-.64-2.029-.948-3.043a8.556,8.556,0,0,1-.419-2.492,3.087,3.087,0,0,1,1.015-2.315,34.512,34.512,0,0,1,9.019-5.072,3.352,3.352,0,0,1,3.881,1.014c.441.529.926,1.059,1.389,1.566.86.97,1.7,1.941,2.514,2.933a2.58,2.58,0,0,0,2.712,1.1q1.941-.309,3.9-.529l2.205-.265a1.235,1.235,0,0,0,.9-.684l1.059-1.985,1.059-1.985c.419-.794.86-1.588,1.323-2.36a3.374,3.374,0,0,1,3.9-1.7c3.4.838,6.131,1.566,8.6,2.205a3.506,3.506,0,0,1,2.536,3.617,30.714,30.714,0,0,1-.221,3.176l-.132,1.566v2.205a1.941,1.941,0,0,0,.728,1.61l1.036.816c1.257.992,2.514,1.985,3.727,3.021a2.205,2.205,0,0,0,2.205.419l2.845-.9,3-.948a3.793,3.793,0,0,1,4.741,1.786q2.029,3.44,3.9,6.946a3.926,3.926,0,0,1-.882,5.381c-.573.529-1.169,1.036-1.786,1.544l-1.213,1.036c-.684.617-1.345,1.235-1.985,1.9a1.411,1.411,0,0,0-.441,1.235l.132,1.345c.176,1.61.353,3.242.573,4.874a2.205,2.205,0,0,0,1.3,1.786l1.478.706,2.205,1.014a23.013,23.013,0,0,1,2.205,1.279,3.55,3.55,0,0,1,1.654,4.1c-.706,2.6-1.433,5.182-2.205,7.784a5.821,5.821,0,0,1-.573,1.235,3.352,3.352,0,0,1-3.352,1.963l-5.491-.419H332.3a2.779,2.779,0,0,0-2.955,1.345,25.04,25.04,0,0,1-2.205,2.69l-.882,1.081a2.778,2.778,0,0,0-.485,2.955c.6,1.742,1.169,3.462,1.7,5.226a3.661,3.661,0,0,1-1.9,4.918c-2.205,1.3-4.543,2.6-7.189,4.013a3.617,3.617,0,0,1-4.7-.794c-.882-.948-1.72-1.919-2.536-2.911l-.573-.662c-1.941-2.205-2.073-2.338-5.028-1.941l-3.881.573a2.514,2.514,0,0,0-2.073,1.433l-.684,1.367c-.441.948-.9,1.9-1.389,2.8a12.522,12.522,0,0,1-1.456,2.205A3.021,3.021,0,0,1,293.71,299.469Zm-18.281-21.038a4.123,4.123,0,0,1,2.624.97l.4.309L282.662,283a3.947,3.947,0,0,1,1.544,3.176,15.635,15.635,0,0,1,0,1.764c0,1.036-.154,2.051-.221,3.087l-.2,2.338a1.147,1.147,0,0,0,.75,1.191,3.706,3.706,0,0,0,.838.4c1.963.573,3.925,1.1,5.91,1.654l2.205.617a.8.8,0,0,0,.86-.331,10.7,10.7,0,0,0,1.235-1.83c.463-.882.9-1.808,1.345-2.712l.684-1.389a4.675,4.675,0,0,1,3.749-2.646l3.881-.573c3.727-.507,4.587-.176,7.013,2.69l.573.662c.816.97,1.61,1.919,2.47,2.823a1.411,1.411,0,0,0,2.051.353c2.6-1.367,4.94-2.668,7.1-3.947,1.191-.706,1.3-1.014.9-2.4-.507-1.72-1.081-3.418-1.676-5.116a5.028,5.028,0,0,1,.86-5.072l.9-1.1c.706-.838,1.389-1.654,2.029-2.558a4.984,4.984,0,0,1,5.072-2.205h.331l5.491.441a1.147,1.147,0,0,0,1.191-.728,6.47,6.47,0,0,0,.441-.9c.728-2.58,1.455-5.16,2.205-7.74a1.345,1.345,0,0,0-.706-1.676,18.99,18.99,0,0,0-2.073-1.147l-2.051-1.014-1.522-.728a4.41,4.41,0,0,1-2.514-3.462c-.221-1.632-.4-3.286-.573-4.94l-.154-1.323a3.617,3.617,0,0,1,1.058-3.021,21.5,21.5,0,0,1,2.205-2.007l1.257-1.081c.573-.463,1.147-.948,1.676-1.455,1.059-.992,1.147-1.478.485-2.734-1.257-2.205-2.558-4.587-3.881-6.858a1.61,1.61,0,0,0-2.205-.794c-.992.287-1.963.617-2.955.926l-2.867.926a4.41,4.41,0,0,1-4.41-.86c-1.191-1.014-2.426-1.985-3.661-2.955l-1.036-.838a4.1,4.1,0,0,1-1.566-3.33c0-.75,0-1.522,0-2.205a5.408,5.408,0,0,1,.154-1.632c0-.992.2-1.985.2-2.977a1.367,1.367,0,0,0-.926-1.477c-2.448-.706-5.16-1.433-8.534-2.205a1.191,1.191,0,0,0-1.478.684c-.463.75-.86,1.5-1.279,2.205l-1.059,1.985c-.353.662-.706,1.345-1.081,2.007a3.374,3.374,0,0,1-2.536,1.808l-2.205.265c-1.279.176-2.558.331-3.815.529a4.763,4.763,0,0,1-4.763-1.9c-.794-.97-1.632-1.9-2.47-2.845l-1.411-1.588a1.147,1.147,0,0,0-1.455-.4,31.826,31.826,0,0,0-8.446,4.763,1.811,1.811,0,0,0-.132.573,5.821,5.821,0,0,0,.331,1.83L276.73,227c.265.772.507,1.566.75,2.36a3.683,3.683,0,0,1-.507,3.462c-1.323,1.676-2.911,3.661-4.631,5.623a3.947,3.947,0,0,1-2.36,1.059,10.736,10.736,0,0,1-2.073,0h-.6l-1.61-.132c-.97,0-1.963-.176-2.933-.2a1.72,1.72,0,0,0-1.742,1.3c-.309.97-.617,1.941-.86,2.911-.353,1.345-.684,2.668-1.014,4.014l-.4,1.588v.309a4.41,4.41,0,0,0,2.073,1.654l2.977,1.566,2.007,1.036a3.485,3.485,0,0,1,1.852,2.69,15.9,15.9,0,0,0,.287,2.205c.132,1.147.287,2.205.463,3.418a5.381,5.381,0,0,1-2.205,5.381c-1.213.948-2.492,2.029-3.991,3.374-.86.772-.926,1.1-.419,2.073.948,1.9,2.205,4.41,3.683,6.858.9,1.544,1.125,1.632,2.977,1.125l1.654-.529c1.213-.4,2.448-.772,3.639-1.191a5.246,5.246,0,0,1,1.676-.529Zm25.007-3.881a18.965,18.965,0,1,1,18.877-20.575,17.929,17.929,0,0,1-3.947,13.408,18.9,18.9,0,0,1-13.341,7.167Zm-.132-35.7h-1.478a16.76,16.76,0,1,0,14.819,27.1A15.811,15.811,0,0,0,317.13,254.2h0A16.671,16.671,0,0,0,300.3,238.8Z" transform="translate(201.418 221.549)" fill="#d1d3d4"/>
    <path id="Path_66" data-name="Path 66" d="M372.683,127.27c-12.79,14.091-45.494,41.083-112.621,42.054l-1.852,119.59s64.172,9.857,114.473-34.777Z" transform="translate(203.355 120.233)" fill="#fff"/>
    <path id="Path_67" data-name="Path 67" d="M274.205,291.48a118.455,118.455,0,0,1-15.569-.882,1.081,1.081,0,0,1-.926-1.1l1.852-119.59a1.1,1.1,0,0,1,1.081-1.081c65.165-.948,98.044-26.463,111.827-41.679a1.1,1.1,0,0,1,1.213-.309,1.125,1.125,0,0,1,.706,1.036V254.741a1.059,1.059,0,0,1-.375.816C338.863,286.761,296.544,291.48,274.205,291.48Zm-14.29-2.933c8.115.948,66.311,6.175,112.268-34.313V130.741c-14.951,15.437-47.964,39.165-110.438,40.334Z" transform="translate(202.752 119.629)" fill="#270b3b"/>
    <path id="Path_68" data-name="Path 68" d="M266.323,256.778a1.1,1.1,0,0,1-1.1-1.058,1.125,1.125,0,0,1,1.059-1.147,145.547,145.547,0,0,0,62.761-15.547A90.262,90.262,0,0,0,349.173,225.2V143.363a1.1,1.1,0,1,1,2.205,0v82.3a1.058,1.058,0,0,1-.309.75c-.287.287-27.94,28.447-84.7,30.366Z" transform="translate(211.803 138.3)" fill="#d1d3d4"/>
    <path id="Path_69" data-name="Path 69" d="M269.513,164.69a1.1,1.1,0,1,1,0-2.205c.154,0,16.738-1.147,25.647-7.277a1.081,1.081,0,0,1,1.522.287,1.1,1.1,0,0,1-.265,1.522c-9.416,6.483-26.066,7.63-26.771,7.674Z" transform="translate(215.648 153.668)" fill="#d1d3d4"/>
    <path id="Path_70" data-name="Path 70" d="M269.513,160.028a1.125,1.125,0,0,1-1.1-1.081,1.081,1.081,0,0,1,1.081-1.125c.154,0,15.679-.529,25.6-7.3a1.1,1.1,0,1,1,1.235,1.83c-10.453,7.145-26.132,7.652-26.794,7.674Z" transform="translate(215.648 148.031)" fill="#d1d3d4"/>
    <path id="Path_71" data-name="Path 71" d="M267.64,228.309a1.036,1.036,0,0,1-.728-.309,1.059,1.059,0,0,1,0-1.544c.2-.243,21.3-23.177,30.146-37.489a1.1,1.1,0,0,1,.816-.529,1.169,1.169,0,0,1,.9.331l17.113,17.642c3.22-6.351,16.65-33.3,19.384-49.2l-7.917,4.763a1.108,1.108,0,1,1-1.147-1.9l9.9-5.954a1.169,1.169,0,0,1,1.169,0,1.147,1.147,0,0,1,.507,1.059C335.8,173,317.942,207.316,317.126,208.771a1.058,1.058,0,0,1-.816.573,1.147,1.147,0,0,1-.948-.309l-17.179-17.818c-9.35,14.532-29.44,36.386-29.66,36.629A1.147,1.147,0,0,1,267.64,228.309Z" transform="translate(213.441 152.412)" fill="#d1d3d4"/>
    <path id="Path_72" data-name="Path 72" d="M302.273,165.964a1.1,1.1,0,0,1-1.059-.75l-3.286-9.681a1.1,1.1,0,1,1,2.073-.706l3.308,9.681a1.125,1.125,0,0,1-.684,1.411Z" transform="translate(251.095 152.394)" fill="#d1d3d4"/>
    <path id="Path_73" data-name="Path 73" d="M110.32,64.47s3.749,29.4,22.052,35.7v63.952s-13.783-6.2-22.052-27.543Z" transform="translate(25.114 44.545)" fill="#fff"/>
    <path id="Path_74" data-name="Path 74" d="M132.939,165.755a1.147,1.147,0,0,1-.463,0c-.573-.265-14.29-6.616-22.6-28.161a.86.86,0,0,1,0-.4V65.064a1.081,1.081,0,0,1,1.036-1.081,1.059,1.059,0,0,1,1.169.948c0,.287,3.859,28.8,21.3,34.8a1.125,1.125,0,0,1,.75,1.036v63.952a1.1,1.1,0,0,1-.507.926.993.993,0,0,1-.684.11ZM111.99,136.91c6.373,16.3,16.076,23.574,19.847,25.867V101.516c-11.423-4.41-17.135-17.2-19.847-26.463Z" transform="translate(24.546 43.951)" fill="#270b3b"/>
  </g>
</svg>
